inDegrees=no
num_controls=7
num_derivatives=13
num_iterations=151
num_multipliers=7
num_parameters=0
num_slacks=7
num_states=26
objective=6.258522
objective_accelerations=0.719657
objective_balance=0.050245
objective_effort=0.622103
objective_height=4.772971
objective_ligament=0.093545
solver_duration=1640.555730
status=Solve_Succeeded
success=true
DataType=double
version=3
OpenSimVersion=4.4-2022-07-23-0e9fedc
endheader
time	/jointset/ground_pelvis/pelvis_tilt/value	/jointset/ground_pelvis/pelvis_tx/value	/jointset/ground_pelvis/pelvis_ty/value	/jointset/hip_l/hip_flexion_l/value	/jointset/hip_l/hip_adduction_l/value	/jointset/hip_l/hip_rotation_l/value	/jointset/back/lumbar_extension/value	/jointset/patellofemoral_l/patellar_flexion_l/value	/jointset/knee_l/knee_flexion_l/value	/jointset/knee_l/knee_adduction_l/value	/jointset/knee_l/knee_rotation_l/value	/jointset/ankle_l/ankle_angle_l/value	/jointset/subtalar_l/subtalar_angle_l/value	/jointset/ground_pelvis/pelvis_tilt/speed	/jointset/ground_pelvis/pelvis_tx/speed	/jointset/ground_pelvis/pelvis_ty/speed	/jointset/hip_l/hip_flexion_l/speed	/jointset/hip_l/hip_adduction_l/speed	/jointset/hip_l/hip_rotation_l/speed	/jointset/back/lumbar_extension/speed	/jointset/patellofemoral_l/patellar_flexion_l/speed	/jointset/knee_l/knee_flexion_l/speed	/jointset/knee_l/knee_adduction_l/speed	/jointset/knee_l/knee_rotation_l/speed	/jointset/ankle_l/ankle_angle_l/speed	/jointset/subtalar_l/subtalar_angle_l/speed	/forceset/tau_hip_flexion_l	/forceset/tau_hip_adduction_l	/forceset/tau_hip_rotation_l	/forceset/tau_knee_flexion_l	/forceset/tau_ankle_angle_l	/forceset/tau_subtalar_angle_l	/forceset/tau_lumbar_extension	lambda_cid13_p0	lambda_cid13_p1	lambda_cid13_p2	lambda_cid13_p3	lambda_cid13_p4	lambda_cid13_p5	lambda_cid14_p0	/jointset/ground_pelvis/pelvis_tilt/accel	/jointset/ground_pelvis/pelvis_tx/accel	/jointset/ground_pelvis/pelvis_ty/accel	/jointset/hip_l/hip_flexion_l/accel	/jointset/hip_l/hip_adduction_l/accel	/jointset/hip_l/hip_rotation_l/accel	/jointset/back/lumbar_extension/accel	/jointset/patellofemoral_l/patellar_flexion_l/accel	/jointset/knee_l/knee_flexion_l/accel	/jointset/knee_l/knee_adduction_l/accel	/jointset/knee_l/knee_rotation_l/accel	/jointset/ankle_l/ankle_angle_l/accel	/jointset/subtalar_l/subtalar_angle_l/accel	gamma_cid13_p0	gamma_cid13_p1	gamma_cid13_p2	gamma_cid13_p3	gamma_cid13_p4	gamma_cid13_p5	gamma_cid14_p0
1.5	-0.08708662445200044	-0.05650978887474657	0.8230268130433968	0.876307401515749	-0.3175233781448727	-0.1242891064715574	-0.8169327849229164	0.8193197130651727	0.8193197130651525	-0.08585945713304347	-0.1745315174208186	0.08970881916584465	0.00638343018531011	0.5657548218506853	0.3075807445390659	0.5440895855024915	-2.508405367874158	0.06488680866274329	-0.6479355716467441	0.8232266192035406	-2.107632370216584	-2.107632370216742	-0.1911813023844269	-4.868140019854675e-05	-0.2892414168572436	-0.02179258743083552	-0.2624053166892146	0.01249260597529599	-0.006496269653855503	-0.2106352259325353	0.1128842621869326	0.05088799870783902	0.3176551147184964	-5.476583976680181	-22.49015252353749	4.671440741806614	-14.87266750262571	-665.6067744619334	-76.85872851201317	-13.74632052171532	0.3001667180632606	0.9527176230828258	-0.7109235623406293	-1.102769343522783	0.5159624020652402	-0.4583957414352806	2.348107648970922	-1.043424216261881	-1.043424216261881	-0.1951116983487293	0.008818537245702852	-0.2332747532624766	0.4836778198535389	4.914174578757654e-07	5.989388559672542e-07	-2.375708857583592e-06	-1.961049401955118e-07	5.828749539136642e-07	-3.387286796389773e-08	4.059930483547442e-07
1.51	-0.08141442902786804	-0.05338654202421989	0.8284310976338043	0.8511701616234879	-0.3168501620527711	-0.1307894779592322	-0.8085846967011657	0.7981935475604189	0.7981935475604159	-0.08778466867012119	-0.1745321797843478	0.08680500322420599	0.006188096479427001	0.5685951651012295	0.3170426532266551	0.5366532273223141	-2.518722224056949	0.06975615674719274	-0.652063966147815	0.8462876387107956	-2.117306683999078	-2.117306683999049	-0.1938607216924666	-7.04307661073572e-05	-0.2914380410121152	-0.01725114769053344	-0.2528357283485783	0.0120065295275908	-0.006219525075093987	-0.207102760268246	0.1120281668333355	0.05008742783181403	0.3089429682509968	-5.420938138447119	-22.23269436740184	4.722328865314804	-14.63390942953147	-659.5968083092525	-76.7863615503079	-14.53657721803978	0.2626516509879783	0.9389982085966248	-0.7769803623205733	-0.9480230413336603	0.4725640349920621	-0.3784387380322709	2.269591136263263	-0.8854116436399153	-0.8854116436118998	-0.3042288517562831	-0.006125632778241813	-0.200265899079397	0.442955560010514	4.967379992942996e-07	7.600427206716881e-07	-2.294218063552645e-06	-1.77001464981915e-07	6.185052025947184e-07	4.658687151362262e-08	4.142298628654733e-07
1.52	-0.07571649346674314	-0.0501694619434174	0.8337576209591172	0.8259393773122603	-0.3161282238751535	-0.1373288088786427	-0.8000090998774105	0.7769794435809623	0.7769794435809777	-0.08973664876122402	-0.1745327504333204	0.08388173911052144	0.006038892872725301	0.5709028492492957	0.3263473905942266	0.5285373324835791	-2.527114251666794	0.07463122576593938	-0.6557274579924576	0.8687283396044708	-2.125220065157442	-2.125220065157226	-0.1965350131894965	-3.033850277943692e-05	-0.293131051266183	-0.01256656759455368	-0.2432661400079623	0.01152045307986153	-0.005942780496330888	-0.2035702946039613	0.1111720714797324	0.0492868569557605	0.3002308217834857	-5.364909589885012	-21.97670620013288	4.775055986327819	-14.44204972212628	-653.6174287139054	-76.79028184869786	-15.31314806620315	0.1936348975676577	0.9212833590792554	-0.8468308940521543	-0.7178036289336056	0.5171065889246937	-0.365415210149577	2.22404392625499	-0.6912376914358935	-0.6912376914359361	-0.1940861361467672	0.02118686309310873	-0.1325519731017226	0.512305890989097	5.010683241967566e-07	8.99615852465303e-07	-2.221558003224624e-06	-1.626992058183467e-07	6.56842146516514e-07	1.237533135990639e-07	4.199756583018899e-07
1.53	-0.06999810803251033	-0.04686025372561967	0.8389996704280058	0.8006342563694537	-0.3153575835145661	-0.143902943399795	-0.7912124884767359	0.7556949761919012	0.7556949761918182	-0.09171511251306991	-0.1745329251994329	0.08094398150165168	0.005937151163556415	0.5726824741478557	0.3354542200931905	0.5197642882538026	-2.533570932744289	0.07949173621853746	-0.659034040160643	0.8904685324073718	-2.131363745728765	-2.13136374572863	-0.199147256407309	-2.934696614309866e-06	-0.2943373471899198	-0.007764152281910869	-0.23372162800562	0.01092688246864953	-0.005633477107070626	-0.1999759340389116	0.1099111318913985	0.04830878598727312	0.2914277727589001	-5.460406158617224	-21.61431424157404	4.807636782788621	-13.98520763787334	-647.7778985041519	-76.64355993113577	-16.07561292482497	0.1564058037975884	0.8993480999986181	-0.9086381198139286	-0.5586901742273557	0.4698862561272513	-0.3030510137167303	2.13019573887708	-0.529568147896755	-0.5295681479088231	-0.2931018120302381	-0.00665720915365329	-0.1021593867194805	0.4669275083411503	5.043465440508815e-07	1.016312580541173e-06	-2.15828059745596e-06	-1.534982387079334e-07	6.980549541315975e-07	1.974206272054211e-07	4.230747459718494e-07
1.54	-0.0642646704457332	-0.04346118414189357	0.8441507700681221	0.7752747506504544	-0.3145384654529126	-0.1505080980013487	-0.7822022373917187	0.7343583450155456	0.7343583450153618	-0.09371936037657981	-0.1745328613711124	0.0779966627366014	0.005883977238901799	0.5739132797583159	0.3443196637798975	0.5103473667291009	-2.537991206904574	0.08432676597913735	-0.6619314740713784	0.9114562764730512	-2.135652822616736	-2.135652822616682	-0.2016918355223941	1.74951682746905e-05	-0.2950432825020501	-0.002853010691698615	-0.2241771160033023	0.01033331185741282	-0.005324173717813105	-0.1963815734738681	0.1086501923030579	0.04733071501875653	0.2826247237343003	-5.553072367229155	-21.25396629141731	4.842314076941737	-13.58458843960496	-641.9360729614316	-76.56844790173291	-16.82422747241508	0.08387103994770917	0.873006196627832	-0.9756063530371983	-0.3105222454912969	0.5120104505250643	-0.2835855586595933	2.073554178810707	-0.3203169547656033	-0.3203169547655392	-0.1805533156013082	0.01979207483791742	-0.03247985078043563	0.5340511465029975	5.044285493226195e-07	1.191557821617384e-06	-2.067879715031265e-06	-1.341162547798419e-07	7.37606377759089e-07	2.72023924351557e-07	4.301140088306778e-07
1.55	-0.05852166185671798	-0.03997472774933322	0.8492046359233005	0.7498809356474874	-0.3136712338737065	-0.157140259778493	-0.7729862364721349	0.7129877932996764	0.712987793299511	-0.09574891593284852	-0.1745326177392349	0.07504468383539158	0.00588031277094844	0.574589163779556	0.3529246458767745	0.5003299057460359	-2.540434703009323	0.08910895157627705	-0.6643668657045027	0.9315920106270226	-2.138160086477307	-2.138160086477282	-0.2042507316696581	9.129182756280426e-05	-0.2952719101136887	0.002130157525966805	-0.2142945724346535	0.009264399302044778	-0.005011186316883865	-0.1936746508948967	0.1082753148887853	0.0461272169590338	0.2735976942670402	-5.399740176076447	-20.82792615264931	4.854109603898102	-13.25590424697196	-636.5174805400541	-76.47224396050035	-17.55980914575115	0.04459150566393583	0.8471817440619446	-1.029041524386439	-0.1606486818112436	0.4597585558850605	-0.2029756784088461	1.960798511218613	-0.1714056148415222	-0.1714056148461137	-0.298070733670081	0.009786755302908257	-0.005908470721790985	0.4819238452867164	5.008279595320422e-07	1.434261132020072e-06	-1.946227870372447e-06	-1.030039688661654e-07	7.752435980965289e-07	3.477056373152636e-07	4.416930387549418e-07
1.56	-0.05277486554300083	-0.03640363403023528	0.8541554820579593	0.724472808605702	-0.3127564932502137	-0.1637926674145199	-0.763573435115506	0.6916010740425697	0.6916010740424309	-0.09780496304446153	-0.1745299134820291	0.07209284780719243	0.00592677482234942	0.5746708246988674	0.3612471290874152	0.4897434226251791	-2.540853614667852	0.09382857483647816	-0.665980645848428	0.9508163638821249	-2.138886330863428	-2.138886330863434	-0.2069901465921666	0.0005096202399963584	-0.2950147078999761	0.007172293179168033	-0.2044120288660094	0.008195486746686118	-0.004698198915920752	-0.1909677283159259	0.1079004374745165	0.04492371889932229	0.2645706647997727	-5.240917496738451	-20.40423022835283	4.867860319753234	-12.99053086145251	-631.0585762331921	-76.44285413126352	-18.28304101772046	-0.03497358043800668	0.816506419380566	-1.089410780595557	0.09439464375262886	0.4994979831373328	-0.1192632608198356	1.891277999036889	0.03588694012416613	0.03588694012416407	-0.2166570706502202	0.08869842546696985	0.06468611428981637	0.5458446336101505	3.99568876090841e-07	1.832813440097081e-06	-1.334685762404266e-06	1.468369267123041e-08	6.961071330827661e-07	3.728655365715506e-07	4.085353084515082e-07
1.57	-0.04703042299130796	-0.03275093148802449	0.8589976295990275	0.6990714396340134	-0.3117942059041049	-0.1704605308510166	-0.7539728935016028	0.6702165975389857	0.6702165975388544	-0.09988588658169249	-0.1745234893677898	0.06914623680216445	0.006024812537304514	0.5741242927508113	0.369225394620282	0.4785986916693427	-2.539064765445305	0.09861304384550805	-0.6674564990912257	0.9691116220290582	-2.137698604771536	-2.137698604771524	-0.2092225404579547	0.0008264308866624752	-0.2942385850412296	0.01243556604461142	-0.1948832024695334	0.007336183249421908	-0.004417745542873038	-0.1877245271913101	0.1064064423784001	0.04359181072316959	0.2556890191826037	-5.472379364636905	-19.85999178040072	4.86646103879456	-12.25179201376328	-625.8779733099677	-76.20061743967921	-18.98199817971554	-0.07852275977281063	0.7783630417239625	-1.140045061243598	0.2744197578288697	0.4650783536247252	-0.1411941823936175	1.771599192137905	0.2067165723623573	0.206716572364982	-0.2302076141894698	0.01090785237132929	0.09450005848618792	0.5161073113608431	1.762366755863613e-07	2.426176995266988e-06	-1.107808252993881e-07	2.405905737382744e-07	4.71003561380001e-07	3.348731686935633e-07	3.194566278634532e-07
